<svg width="28" height="15" viewBox="0 0 28 15" fill="none" xmlns="http://www.w3.org/2000/svg">
<path d="M13.8867 0C14.0977 0 14.25 0.0429688 14.3438 0.128906C14.4375 0.214844 14.4844 0.371094 14.4844 0.597656C14.4844 0.753906 14.4609 0.957031 14.4141 1.20703C14.3594 1.53516 14.2891 1.78516 14.2031 1.95703C14.125 2.12891 14.0273 2.24609 13.9102 2.30859C13.8008 2.37109 13.6523 2.40234 13.4648 2.40234H11.4023L10.1016 9.77344C9.83594 11.2812 9.25391 12.3906 8.35547 13.1016C7.46484 13.8125 6.20703 14.168 4.58203 14.168C3.67578 14.168 2.82812 14.0078 2.03906 13.6875C1.25781 13.3594 0.617188 12.9062 0.117188 12.3281C0.0390625 12.2422 0 12.125 0 11.9766C0 11.9297 0.0078125 11.8516 0.0234375 11.7422L0.667969 8.0625C0.714844 7.79688 0.867188 7.60938 1.125 7.5C1.39062 7.38281 1.80078 7.32422 2.35547 7.32422C2.82422 7.32422 3.15234 7.36719 3.33984 7.45312C3.52734 7.53906 3.62109 7.67969 3.62109 7.875C3.62109 7.90625 3.61328 7.96875 3.59766 8.0625L3.08203 11.0508C3.57422 11.3555 4.19531 11.5078 4.94531 11.5078C5.58594 11.5078 6.09375 11.3398 6.46875 11.0039C6.85156 10.6602 7.10547 10.1328 7.23047 9.42188L8.47266 2.40234H4.76953C4.55859 2.40234 4.40625 2.36328 4.3125 2.28516C4.21875 2.19922 4.17188 2.04297 4.17188 1.81641C4.17188 1.65234 4.19531 1.44922 4.24219 1.20703C4.29688 0.878906 4.36328 0.628906 4.44141 0.457031C4.52734 0.285156 4.625 0.167969 4.73438 0.105469C4.85156 0.0351562 5.00391 0 5.19141 0H13.8867ZM22.0547 0C23.2344 0 24.25 0.21875 25.1016 0.65625C25.9531 1.09375 26.6055 1.72656 27.0586 2.55469C27.5117 3.375 27.7383 4.35547 27.7383 5.49609C27.7383 6.73047 27.5117 7.98438 27.0586 9.25781C26.6133 10.5312 25.8203 11.625 24.6797 12.5391C23.5391 13.4531 22.0039 13.9102 20.0742 13.9102H14.3203C14.1094 13.9102 13.957 13.8672 13.8633 13.7812C13.7695 13.6953 13.7227 13.5391 13.7227 13.3125C13.7227 13.1172 13.7422 12.918 13.7812 12.7148C13.8672 12.2383 13.9805 11.918 14.1211 11.7539C14.2617 11.5898 14.4688 11.5078 14.7422 11.5078H15.8789L17.4844 2.40234H16.3477C16.1367 2.40234 15.9844 2.36328 15.8906 2.28516C15.7969 2.19922 15.75 2.04297 15.75 1.81641C15.75 1.65234 15.7734 1.44922 15.8203 1.20703C15.875 0.878906 15.9414 0.628906 16.0195 0.457031C16.1055 0.285156 16.2031 0.167969 16.3125 0.105469C16.4297 0.0351562 16.582 0 16.7695 0H22.0547ZM18.832 11.3906H20.0508C21.1289 11.3906 22.0078 11.0977 22.6875 10.5117C23.375 9.92578 23.8672 9.19141 24.1641 8.30859C24.4688 7.42578 24.6211 6.51172 24.6211 5.56641C24.6211 4.55859 24.3672 3.80078 23.8594 3.29297C23.3594 2.77734 22.6094 2.51953 21.6094 2.51953H20.3906L18.832 11.3906Z" fill="white"/>
</svg>
